<svg xmlns="http://www.w3.org/2000/svg" viewBox="0 0 64 64">
  <defs>
    <linearGradient id="boxFace" x1="0%" y1="0%" x2="100%" y2="100%">
      <stop offset="0%" stop-color="#ffffff"/>
      <stop offset="100%" stop-color="#e6e9f0"/>
    </linearGradient>
    <linearGradient id="boxTop" x1="0%" y1="100%" x2="0%" y2="0%">
      <stop offset="0%" stop-color="#d8dce6"/>
      <stop offset="100%" stop-color="#f0f2f8"/>
    </linearGradient>
    <linearGradient id="stripeGrad" x1="0%" y1="0%" x2="100%" y2="0%">
      <stop offset="0%" stop-color="#002d8f"/>
      <stop offset="50%" stop-color="#0044cc"/>
      <stop offset="100%" stop-color="#002d8f"/>
    </linearGradient>
    <linearGradient id="strawGrad" x1="0%" y1="0%" x2="100%" y2="0%">
      <stop offset="0%" stop-color="#e0e4ee"/>
      <stop offset="50%" stop-color="#ffffff"/>
      <stop offset="100%" stop-color="#c8cdd8"/>
    </linearGradient>
    <filter id="shadow" x="-10%" y="-10%" width="130%" height="130%">
      <feDropShadow dx="1" dy="2" stdDeviation="1.5" flood-color="#001a4d" flood-opacity="0.25"/>
    </filter>
  </defs>
  <!-- Box body -->
  <rect x="12" y="18" width="40" height="38" rx="2.5" fill="url(#boxFace)" stroke="#b0b8c8" stroke-width="0.6" filter="url(#shadow)"/>
  <!-- Box left edge (depth) -->
  <path d="M12,18 L12,56 L10,54 L10,20 Z" fill="#c8cdd8" opacity="0.5"/>
  <!-- Box top fold -->
  <polygon points="12,18 20,8 44,8 52,18" fill="url(#boxTop)" stroke="#b0b8c8" stroke-width="0.5"/>
  <!-- Top fold crease -->
  <line x1="32" y1="8" x2="32" y2="18" stroke="#c0c8d4" stroke-width="0.4" opacity="0.6"/>
  <!-- Blue stripe top -->
  <rect x="12" y="18" width="40" height="6" rx="0.5" fill="url(#stripeGrad)"/>
  <!-- Blue stripe bottom -->
  <rect x="12" y="49" width="40" height="6" rx="0.5" fill="url(#stripeGrad)"/>
  <!-- Star of David (center) -->
  <g transform="translate(32,37)">
    <polygon points="0,-10 8.66,5 -8.66,5" fill="none" stroke="#0038b8" stroke-width="1.8" stroke-linejoin="round"/>
    <polygon points="0,10 8.66,-5 -8.66,-5" fill="none" stroke="#0038b8" stroke-width="1.8" stroke-linejoin="round"/>
  </g>
  <!-- Straw -->
  <rect x="39" y="2" width="3" height="20" rx="1.5" fill="url(#strawGrad)" stroke="#8090a8" stroke-width="0.5"/>
  <!-- Straw bend -->
  <path d="M42,5 L48,5 L48,2 L42,2" fill="url(#strawGrad)" stroke="#8090a8" stroke-width="0.5" rx="1"/>
  <!-- Straw opening -->
  <ellipse cx="48" cy="3.5" rx="1" ry="1.5" fill="#d0d4de" stroke="#8090a8" stroke-width="0.3"/>
  <!-- Shine/reflection -->
  <rect x="15" y="25" width="3" height="14" rx="1.5" fill="#fff" opacity="0.35"/>
  <rect x="20" y="27" width="1.5" height="8" rx="0.75" fill="#fff" opacity="0.2"/>
</svg>
