<svg xmlns="http://www.w3.org/2000/svg" width="1200" height="630" viewBox="0 0 1200 630">
  <defs>
    <linearGradient id="bg" x1="0%" y1="0%" x2="100%" y2="100%">
      <stop offset="0%" stop-color="#001428"/>
      <stop offset="50%" stop-color="#002244"/>
      <stop offset="100%" stop-color="#001428"/>
    </linearGradient>
    <linearGradient id="accent" x1="0%" y1="0%" x2="100%" y2="0%">
      <stop offset="0%" stop-color="#0038b8"/>
      <stop offset="100%" stop-color="#0056b3"/>
    </linearGradient>
    <linearGradient id="gold" x1="0%" y1="0%" x2="100%" y2="0%">
      <stop offset="0%" stop-color="#ff9800"/>
      <stop offset="100%" stop-color="#ffc107"/>
    </linearGradient>
  </defs>

  <!-- Background -->
  <rect width="1200" height="630" fill="url(#bg)"/>

  <!-- Subtle grid -->
  <g stroke="#0056b3" stroke-width="0.5" opacity="0.08">
    <line x1="0" y1="100" x2="1200" y2="100"/>
    <line x1="0" y1="200" x2="1200" y2="200"/>
    <line x1="0" y1="300" x2="1200" y2="300"/>
    <line x1="0" y1="400" x2="1200" y2="400"/>
    <line x1="0" y1="500" x2="1200" y2="500"/>
    <line x1="200" y1="0" x2="200" y2="630"/>
    <line x1="400" y1="0" x2="400" y2="630"/>
    <line x1="600" y1="0" x2="600" y2="630"/>
    <line x1="800" y1="0" x2="800" y2="630"/>
    <line x1="1000" y1="0" x2="1000" y2="630"/>
  </g>

  <!-- Network dots -->
  <circle cx="80" cy="100" r="4" fill="#0056b3" opacity="0.3"/>
  <circle cx="160" cy="60" r="3" fill="#007bff" opacity="0.25"/>
  <circle cx="220" cy="130" r="5" fill="#0056b3" opacity="0.3"/>
  <line x1="80" y1="100" x2="160" y2="60" stroke="#0056b3" stroke-width="1" opacity="0.15"/>
  <line x1="160" y1="60" x2="220" y2="130" stroke="#0056b3" stroke-width="1" opacity="0.15"/>
  <circle cx="1000" cy="500" r="4" fill="#0056b3" opacity="0.3"/>
  <circle cx="1080" cy="540" r="3" fill="#007bff" opacity="0.25"/>
  <circle cx="1130" cy="480" r="5" fill="#0056b3" opacity="0.3"/>
  <line x1="1000" y1="500" x2="1080" y2="540" stroke="#0056b3" stroke-width="1" opacity="0.15"/>
  <line x1="1080" y1="540" x2="1130" y2="480" stroke="#0056b3" stroke-width="1" opacity="0.15"/>

  <!-- Israeli flag icon -->
  <g transform="translate(80, 200) scale(4)">
    <rect width="60" height="40" fill="#fff"/>
    <rect y="4" width="60" height="7" fill="#0038b8"/>
    <rect y="29" width="60" height="7" fill="#0038b8"/>
    <g transform="translate(30,20)">
      <polygon points="0,-10 8.66,5 -8.66,5" fill="none" stroke="#0038b8" stroke-width="1.8" stroke-linejoin="round"/>
      <polygon points="0,10 8.66,-5 -8.66,-5" fill="none" stroke="#0038b8" stroke-width="1.8" stroke-linejoin="round"/>
    </g>
  </g>

  <!-- Title -->
  <text x="370" y="250" font-size="68" font-weight="bold" fill="#ffffff" font-family="Arial, Helvetica, sans-serif" letter-spacing="2">Jewish Accountability</text>

  <!-- Gold accent line -->
  <rect x="370" y="272" width="220" height="5" rx="2" fill="url(#gold)"/>

  <!-- Subtitle -->
  <text x="370" y="320" font-size="26" fill="#8ab4f8" font-family="Arial, Helvetica, sans-serif">Jewish Organizations Intelligence Database</text>

  <!-- Stats boxes -->
  <rect x="370" y="360" width="170" height="65" rx="10" fill="#0038b8" opacity="0.25" stroke="#0056b3" stroke-width="1"/>
  <text x="455" y="393" text-anchor="middle" font-size="26" font-weight="bold" fill="#ffc107" font-family="Arial, Helvetica, sans-serif">1,333+</text>
  <text x="455" y="415" text-anchor="middle" font-size="15" fill="#8ab4f8" font-family="Arial, Helvetica, sans-serif">Entries</text>

  <rect x="560" y="360" width="170" height="65" rx="10" fill="#0038b8" opacity="0.25" stroke="#0056b3" stroke-width="1"/>
  <text x="645" y="393" text-anchor="middle" font-size="26" font-weight="bold" fill="#ffc107" font-family="Arial, Helvetica, sans-serif">118</text>
  <text x="645" y="415" text-anchor="middle" font-size="15" fill="#8ab4f8" font-family="Arial, Helvetica, sans-serif">Countries</text>

  <rect x="750" y="360" width="170" height="65" rx="10" fill="#0038b8" opacity="0.25" stroke="#0056b3" stroke-width="1"/>
  <text x="835" y="393" text-anchor="middle" font-size="26" font-weight="bold" fill="#ffc107" font-family="Arial, Helvetica, sans-serif">1,092+</text>
  <text x="835" y="415" text-anchor="middle" font-size="15" fill="#8ab4f8" font-family="Arial, Helvetica, sans-serif">People</text>

  <!-- Domain -->
  <text x="370" y="490" font-size="22" fill="#607d8b" font-family="Arial, Helvetica, sans-serif">JewishAccountability.com</text>
  <text x="370" y="520" font-size="16" fill="#546e7a" font-family="Arial, Helvetica, sans-serif">Est. 2016</text>

  <!-- Bottom accent bar -->
  <rect x="0" y="618" width="1200" height="12" fill="url(#accent)"/>
</svg>
